Coordinates
nRows=203
nColumns=2
inDegrees=yes
endheader
time	ankle_angle_r	
4.45766	 -4.875299	
4.49093	 -4.845611	
4.52419	 -4.822115	
4.55746	 -4.804270	
4.59073	 -4.790489	
4.62399	 -4.781540	
4.65726	 -4.778015	
4.69052	 -4.782586	
4.72379	 -4.798899	
4.75706	 -4.821212	
4.79032	 -4.835126	
4.82359	 -4.832891	
4.85685	 -4.820487	
4.89012	 -4.809304	
4.92339	 -4.804098	
4.95665	 -4.799743	
4.98992	 -4.791513	
5.02319	 -4.782123	
5.05645	 -4.774201	
5.08972	 -4.766881	
5.12298	 -4.763784	
5.15625	 -4.773404	
5.18952	 -4.794928	
5.22278	 -4.815623	
5.25605	 -4.828379	
5.28931	 -4.832467	
5.32258	 -4.822499	
5.35585	 -4.801455	
5.38911	 -4.786126	
5.42238	 -4.783856	
5.45565	 -4.786371	
5.48891	 -4.786066	
5.52218	 -4.782468	
5.55544	 -4.782013	
5.58871	 -4.793290	
5.62198	 -4.814947	
5.65524	 -4.836892	
5.68851	 -4.848673	
5.72177	 -4.841275	
5.75504	 -4.817635	
5.78831	 -4.795316	
5.82157	 -4.784940	
5.85484	 -4.781536	
5.8881	 -4.782131	
5.92137	 -4.792315	
5.95464	 -4.812529	
5.9879	 -4.833697	
6.02117	 -4.846086	
6.05444	 -4.846855	
6.0877	 -4.841180	
6.12097	 -4.835300	
6.15423	 -4.832778	
6.1875	 -4.834461	
6.22077	 -4.837456	
6.25403	 -4.841211	
6.2873	 -4.846329	
6.32056	 -4.848388	
6.35383	 -4.848028	
6.3871	 -4.849860	
6.42036	 -4.848564	
6.45363	 -4.838771	
6.4869	 -4.823887	
6.52016	 -4.807544	
6.55343	 -4.794143	
6.58669	 -4.790344	
6.61996	 -4.799477	
6.65323	 -4.818678	
6.68649	 -4.838942	
6.71976	 -4.851676	
6.75302	 -4.854465	
6.78629	 -4.846047	
6.81956	 -4.826197	
6.85282	 -4.802334	
6.88609	 -4.781979	
6.91935	 -4.766473	
6.95262	 -4.763869	
6.98589	 -4.787330	
7.01915	 -4.831912	
7.05242	 -4.872944	
7.08569	 -4.889018	
7.11895	 -4.878769	
7.15222	 -4.860461	
7.18548	 -4.849390	
7.21875	 -4.838488	
7.25202	 -4.818888	
7.28528	 -4.800127	
7.31855	 -4.792608	
7.35181	 -4.794975	
7.38508	 -4.800953	
7.41835	 -4.804986	
7.45161	 -4.810401	
7.48488	 -4.822868	
7.51815	 -4.833526	
7.55141	 -4.832293	
7.58468	 -4.823934	
7.61794	 -4.816257	
7.65121	 -4.810875	
7.68448	 -4.804780	
7.71774	 -4.795244	
7.75101	 -4.788332	
7.78427	 -4.794965	
7.81754	 -4.816172	
7.85081	 -4.839041	
7.88407	 -4.845816	
7.91734	 -4.831377	
7.9506	 -4.814249	
7.98387	 -4.816257	
8.01714	 -4.832539	
8.0504	 -4.838131	
8.08367	 -4.819514	
8.11694	 -4.790336	
8.1502	 -4.775292	
8.18347	 -4.780130	
8.21673	 -4.793333	
8.25	 -4.807622	
8.28327	 -4.816557	
8.31653	 -4.812633	
8.3498	 -4.798195	
8.38306	 -4.782665	
8.41633	 -4.776093	
8.4496	 -4.782134	
8.48286	 -4.792459	
8.51613	 -4.799154	
8.5494	 -4.803193	
8.58266	 -4.802477	
8.61593	 -4.792325	
8.64919	 -4.777566	
8.68246	 -4.764909	
8.71573	 -4.756878	
8.74899	 -4.756310	
8.78226	 -4.759204	
8.81552	 -4.760381	
8.84879	 -4.768333	
8.88206	 -4.786899	
8.91532	 -4.799647	
8.94859	 -4.793435	
8.98185	 -4.776868	
9.01512	 -4.768489	
9.04839	 -4.774737	
9.08165	 -4.780403	
9.11492	 -4.771870	
9.14819	 -4.763049	
9.18145	 -4.772193	
9.21472	 -4.790195	
9.24798	 -4.797344	
9.28125	 -4.792860	
9.31452	 -4.792071	
9.34778	 -4.802812	
9.38105	 -4.818216	
9.41431	 -4.830028	
9.44758	 -4.832846	
9.48085	 -4.824352	
9.51411	 -4.813604	
9.54738	 -4.814195	
9.58065	 -4.827273	
9.61391	 -4.844006	
9.64718	 -4.856780	
9.68044	 -4.861363	
9.71371	 -4.858897	
9.74698	 -4.853826	
9.78024	 -4.846767	
9.81351	 -4.837510	
9.84677	 -4.827034	
9.88004	 -4.817624	
9.91331	 -4.818225	
9.94657	 -4.832845	
9.97984	 -4.850069	
10.0131	 -4.858340	
10.0464	 -4.855979	
10.0796	 -4.849295	
10.1129	 -4.850697	
10.1462	 -4.862026	
10.1794	 -4.866225	
10.2127	 -4.855806	
10.246	 -4.844016	
10.2792	 -4.835428	
10.3125	 -4.820604	
10.3458	 -4.797578	
10.379	 -4.774139	
10.4123	 -4.757902	
10.4456	 -4.747664	
10.4788	 -4.735173	
10.5121	 -4.722689	
10.5454	 -4.722401	
10.5786	 -4.737154	
10.6119	 -4.761660	
10.6452	 -4.788144	
10.6784	 -4.803852	
10.7117	 -4.806289	
10.745	 -4.806536	
10.7782	 -4.805742	
10.8115	 -4.798931	
10.8448	 -4.796490	
10.878	 -4.811959	
10.9113	 -4.837810	
10.9446	 -4.853117	
10.9778	 -4.850504	
11.0111	 -4.839731	
11.0444	 -4.828021	
11.0776	 -4.817799	
11.1109	 -4.819362	
11.1442	 -4.842033	
11.1774	 -4.879779	
